<svg xmlns="http://www.w3.org/2000/svg" width="512" height="512" viewBox="0 0 512 512">
  <defs>
    <pattern id="dots" width="44" height="44" patternUnits="userSpaceOnUse">
      <rect width="44" height="44" fill="#ffe7f1"/>
      <circle cx="12" cy="12" r="6.5" fill="#ffffff" opacity="0.9"/>
      <circle cx="34" cy="34" r="6.5" fill="#ffffff" opacity="0.9"/>
    </pattern>
    <filter id="shadow" x="-20%" y="-20%" width="140%" height="140%">
      <feGaussianBlur stdDeviation="10" result="b"/>
      <feColorMatrix in="b" type="matrix"
        values="1 0 0 0 0
                0 1 0 0 0
                0 0 1 0 0
                0 0 0 0.2 0" result="s"/>
      <feMerge>
        <feMergeNode in="s"/>
        <feMergeNode in="SourceGraphic"/>
      </feMerge>
    </filter>
  </defs>

  <rect width="512" height="512" fill="url(#dots)"/>

  <!-- simple notebook icon -->
  <g transform="translate(94 92)" filter="url(#shadow)">
    <path d="M78 20h220c26 0 46 20 46 46v248c0 26-20 46-46 46H78c-26 0-46-20-46-46V66c0-26 20-46 46-46z"
      fill="#fff" stroke="#ff86b6" stroke-width="18" stroke-linejoin="round"/>
    <path d="M62 66h258" stroke="#ff86b6" stroke-width="18" stroke-linecap="round" opacity="0.35"/>
    <path d="M104 128h200M104 186h200M104 244h150" stroke="#caa7b7" stroke-width="20" stroke-linecap="round" opacity="0.75"/>
    <path d="M280 292l54 50v-86" fill="#ffd1e3" stroke="#ff86b6" stroke-width="18" stroke-linejoin="round"/>
  </g>
</svg>
